<?xml version="1.0" encoding="utf-8"?>
<svg version="1.1" xmlns="http://www.w3.org/2000/svg"  x="0px" y="0px"
	 viewBox="0 0 1000 1000" xml:space="preserve">
<rect x="0" y="0" width="1000" height="1000"/>
<path fill="#fff" d="M429.3,246.6l247.2,270.2l48.1-36.5L982,734.2l-318.5-1c3.1-6.5,8-19.9,3.4-33
    c-3.3-8.7-9.9-13.1-23.8-23c-21.1-15-43.4-28.1-66.7-39.4c-11.7-5.6-25.6-13.8-25.2-27c0.3-8.2,6.1-14.8,11.9-20.4
    c20.4-20.1,43.5-37.4,68.6-51.2c-36.5,4.4-72,14.7-105.2,30.6c-10.5,5-21,10.6-29,19.2c-8,8.6-13.9,20-13.1,32
    c2.3,30.6,43.6,45.5,47.1,76.1c0.4,4.5-0.5,8.9-2.5,12.9c-3.1,6.5-8.6,9.8-16.5,14.4c-6.1,3.6-12.7,6.5-19.5,8.6H370
    c9.7-17.7,17.6-32.6,23-42.9c40.5-76.8,52.6-108.4,55.7-117c4.1-11.3,5.7-18.5,11.9-34.2c5.3-13.5,10.6-27.1,12.7-41.5
    c1.1-7.6-0.1-17.7-7.4-19.8c-4.6-1.4-9.8,1.2-12.3,2.9c-48.5,30.4-71.8,45.6-78,41.3s1-20.4,2.2-24c8-22.7,25.3-32.8,31.1-51.2
    c1.1-3.7,4.1-13.3-0.4-17.8l-0.3-0.3c-4.6-4-12.4,5.3-22.9,4c-1.4-0.1-7.5-1.1-9.7-5.4s0.3-9.3,2.2-13.1
    c8.2-16.8,14.7-28.5,18.1-35.3c4.3-8.5,7.4-17.5,9.3-26.8c3.3-20.2,2.9-31.1-1-32.6s-7.8,2.9-14.8,12.4l-337,401.4H19L429.3,246.6z
    "/>
</svg>
