<?xml version="1.0" encoding="UTF-8"?>
<svg xmlns="http://www.w3.org/2000/svg" style="display: none;" fill="currentColor">
    <symbol id="instagram" viewBox="0 0 448 512">
        <path d="M224.1 141c-63.6 0-114.9 51.3-114.9 114.9s51.3 114.9 114.9 114.9S339 319.5 339 255.9 287.7 141 224.1 141zm0 189.6c-41.1 0-74.7-33.5-74.7-74.7s33.5-74.7 74.7-74.7 74.7 33.5 74.7 74.7-33.6 74.7-74.7 74.7zm146.4-194.3c0 14.9-12 26.8-26.8 26.8-14.9 0-26.8-12-26.8-26.8s12-26.8 26.8-26.8 26.8 12 26.8 26.8zm76.1 27.2c-1.7-35.9-9.9-67.7-36.2-93.9-26.2-26.2-58-34.4-93.9-36.2-37-2.1-147.9-2.1-184.9 0-35.8 1.7-67.6 9.9-93.9 36.1s-34.4 58-36.2 93.9c-2.1 37-2.1 147.9 0 184.9 1.7 35.9 9.9 67.7 36.2 93.9s58 34.4 93.9 36.2c37 2.1 147.9 2.1 184.9 0 35.9-1.7 67.7-9.9 93.9-36.2 26.2-26.2 34.4-58 36.2-93.9 2.1-37 2.1-147.8 0-184.8zM398.8 388c-7.8 19.6-22.9 34.7-42.6 42.6-29.5 11.7-99.5 9-132.1 9s-102.7 2.6-132.1-9c-19.6-7.8-34.7-22.9-42.6-42.6-11.7-29.5-9-99.5-9-132.1s-2.6-102.7 9-132.1c7.8-19.6 22.9-34.7 42.6-42.6 29.5-11.7 99.5-9 132.1-9s102.7-2.6 132.1 9c19.6 7.8 34.7 22.9 42.6 42.6 11.7 29.5 9 99.5 9 132.1s2.7 102.7-9 132.1z"></path>
    </symbol>

    <symbol id="flickr" viewBox="0 0 448 512">
        <path d="M400 32H48C21.5 32 0 53.5 0 80v352c0 26.5 21.5 48 48 48h352c26.5 0 48-21.5 48-48V80c0-26.5-21.5-48-48-48zM144.5 319c-35.1 0-63.5-28.4-63.5-63.5s28.4-63.5 63.5-63.5 63.5 28.4 63.5 63.5-28.4 63.5-63.5 63.5zm159 0c-35.1 0-63.5-28.4-63.5-63.5s28.4-63.5 63.5-63.5 63.5 28.4 63.5 63.5-28.4 63.5-63.5 63.5z"></path>
    </symbol>

    <symbol id="500px" viewBox="0 0 448 512">
        <path d="M103.3 344.3c-6.5-14.2-6.9-18.3 7.4-23.1 25.6-8 8 9.2 43.2 49.2h.3v-93.9c1.2-50.2 44-92.2 97.7-92.2 53.9 0 97.7 43.5 97.7 96.8 0 63.4-60.8 113.2-128.5 93.3-10.5-4.2-2.1-31.7 8.5-28.6 53 0 89.4-10.1 89.4-64.4 0-61-77.1-89.6-116.9-44.6-23.5 26.4-17.6 42.1-17.6 157.6 50.7 31 118.3 22 160.4-20.1 24.8-24.8 38.5-58 38.5-93 0-35.2-13.8-68.2-38.8-93.3-24.8-24.8-57.8-38.5-93.3-38.5s-68.8 13.8-93.5 38.5c-.3.3-16 16.5-21.2 23.9l-.5.6c-3.3 4.7-6.3 9.1-20.1 6.1-6.9-1.7-14.3-5.8-14.3-11.8V20c0-5 3.9-10.5 10.5-10.5h241.3c8.3 0 8.3 11.6 8.3 15.1 0 3.9 0 15.1-8.3 15.1H130.3v132.9h.3c104.2-109.8 282.8-36 282.8 108.9 0 178.1-244.8 220.3-310.1 62.8zm63.3-260.8c-.5 4.2 4.6 24.5 14.6 20.6C306 56.6 384 144.5 390.6 144.5c4.8 0 22.8-15.3 14.3-22.8-93.2-89-234.5-57-238.3-38.2zM393 414.7C283 524.6 94 475.5 61 310.5c0-12.2-30.4-7.4-28.9 3.3 24 173.4 246 256.9 381.6 121.3 6.9-7.8-12.6-28.4-20.7-20.4zM213.6 306.6c0 4 4.3 7.3 5.5 8.5 3 3 6.1 4.4 8.5 4.4 3.8 0 2.6.2 22.3-19.5 19.6 19.3 19.1 19.5 22.3 19.5 5.4 0 18.5-10.4 10.7-18.2L265.6 284l18.2-18.2c6.3-6.8-10.1-21.8-16.2-15.7L249.7 268c-18.6-18.8-18.4-19.5-21.5-19.5-5 0-18 11.7-12.4 17.3L234 284c-18.1 17.9-20.4 19.2-20.4 22.6z"></path>
    </symbol>

    <symbol id="chevron-left" viewBox="0 0 256 512">
        <path d="M231.293 473.899l19.799-19.799c4.686-4.686 4.686-12.284 0-16.971L70.393 256 251.092 74.87c4.686-4.686 4.686-12.284 0-16.971L231.293 38.1c-4.686-4.686-12.284-4.686-16.971 0L4.908 247.515c-4.686 4.686-4.686 12.284 0 16.971L214.322 473.9c4.687 4.686 12.285 4.686 16.971-.001z"></path>
    </symbol>

    <symbol id="chevron-right" viewBox="0 0 256 512">
        <path d="M24.707 38.101L4.908 57.899c-4.686 4.686-4.686 12.284 0 16.971L185.607 256 4.908 437.13c-4.686 4.686-4.686 12.284 0 16.971L24.707 473.9c4.686 4.686 12.284 4.686 16.971 0l209.414-209.414c4.686-4.686 4.686-12.284 0-16.971L41.678 38.101c-4.687-4.687-12.285-4.687-16.971 0z"></path>
    </symbol>

    <symbol id="map-marked-alt" viewBox="0 0 576 512">
        <path d="M288 0c-69.59 0-126 56.41-126 126 0 56.26 82.35 158.8 113.9 196.02 6.39 7.54 17.82 7.54 24.2 0C331.65 284.8 414 182.26 414 126 414 56.41 357.59 0 288 0zm0 168c-23.2 0-42-18.8-42-42s18.8-42 42-42 42 18.8 42 42-18.8 42-42 42zM20.12 215.95A32.006 32.006 0 0 0 0 245.66v250.32c0 11.32 11.43 19.06 21.94 14.86L160 448V214.92c-8.84-15.98-16.07-31.54-21.25-46.42L20.12 215.95zM288 359.67c-14.07 0-27.38-6.18-36.51-16.96-19.66-23.2-40.57-49.62-59.49-76.72v182l192 64V266c-18.92 27.09-39.82 53.52-59.49 76.72-9.13 10.77-22.44 16.95-36.51 16.95zm266.06-198.51L416 224v288l139.88-55.95A31.996 31.996 0 0 0 576 426.34V176.02c0-11.32-11.43-19.06-21.94-14.86z"></path>
    </symbol>

    <symbol id="calendar-alt" viewBox="0 0 448 512">
        <path d="M0 464c0 26.5 21.5 48 48 48h352c26.5 0 48-21.5 48-48V192H0v272zm320-196c0-6.6 5.4-12 12-12h40c6.6 0 12 5.4 12 12v40c0 6.6-5.4 12-12 12h-40c-6.6 0-12-5.4-12-12v-40zm0 128c0-6.6 5.4-12 12-12h40c6.6 0 12 5.4 12 12v40c0 6.6-5.4 12-12 12h-40c-6.6 0-12-5.4-12-12v-40zM192 268c0-6.6 5.4-12 12-12h40c6.6 0 12 5.4 12 12v40c0 6.6-5.4 12-12 12h-40c-6.6 0-12-5.4-12-12v-40zm0 128c0-6.6 5.4-12 12-12h40c6.6 0 12 5.4 12 12v40c0 6.6-5.4 12-12 12h-40c-6.6 0-12-5.4-12-12v-40zM64 268c0-6.6 5.4-12 12-12h40c6.6 0 12 5.4 12 12v40c0 6.6-5.4 12-12 12H76c-6.6 0-12-5.4-12-12v-40zm0 128c0-6.6 5.4-12 12-12h40c6.6 0 12 5.4 12 12v40c0 6.6-5.4 12-12 12H76c-6.6 0-12-5.4-12-12v-40zM400 64h-48V16c0-8.8-7.2-16-16-16h-32c-8.8 0-16 7.2-16 16v48H160V16c0-8.8-7.2-16-16-16h-32c-8.8 0-16 7.2-16 16v48H48C21.5 64 0 85.5 0 112v48h448v-48c0-26.5-21.5-48-48-48z"></path>
    </symbol>

    <symbol id="camera-retro" viewBox="0 0 512 512">
        <path d="M154 80H38c-3.3 0-6-2.7-6-6V38c0-3.3 2.7-6 6-6h116c3.3 0 6 2.7 6 6v36c0 3.3-2.7 6-6 6zm358 0v352c0 26.5-21.5 48-48 48H48c-26.5 0-48-21.5-48-48V144c0-26.5 21.5-48 48-48h136l33.6-44.8C226.7 39.1 240.9 32 256 32h208c26.5 0 48 21.5 48 48zm-48 64H48v288h416V144zm0-64H256l-12 16h220V80zm-88 208c0-66.2-53.8-120-120-120s-120 53.8-120 120 53.8 120 120 120 120-53.8 120-120zm-48 0c0 39.7-32.3 72-72 72s-72-32.3-72-72 32.3-72 72-72 72 32.3 72 72zm-96 0c0-13.2 10.8-24 24-24 8.8 0 16-7.2 16-16s-7.2-16-16-16c-30.9 0-56 25.1-56 56 0 8.8 7.2 16 16 16s16-7.2 16-16z"></path>
    </symbol>

    <symbol id="film-canister" viewBox="0 0 576 512">
        <path d="M544 112H320V80h16a16 16 0 0 0 16-16V48a16 16 0 0 0-16-16h-80V16a16 16 0 0 0-16-16H112a16 16 0 0 0-16 16v16H16A16 16 0 0 0 0 48v16a16 16 0 0 0 16 16h16v384H16a16 16 0 0 0-16 16v16a16 16 0 0 0 16 16h320a16 16 0 0 0 16-16v-16a16 16 0 0 0-16-16h-16v-32h160a32 32 0 0 0 32-32v-48a32 32 0 0 1 32-32 32 32 0 0 0 32-32V144a32 32 0 0 0-32-32zM80 464V80h192v384zm344-104a16 16 0 0 1-16 16h-16a16 16 0 0 1-16-16v-16a16 16 0 0 1 16-16h16a16 16 0 0 1 16 16zm0-160a16 16 0 0 1-16 16h-16a16 16 0 0 1-16-16v-16a16 16 0 0 1 16-16h16a16 16 0 0 1 16 16zm96 0a16 16 0 0 1-16 16h-16a16 16 0 0 1-16-16v-16a16 16 0 0 1 16-16h16a16 16 0 0 1 16 16z"></path>
    </symbol>

    <symbol id="telescope" viewBox="0 0 640 512">
        <path d="M638.7773,216.83088,553.06276,9.88222A15.99571,15.99571,0,0,0,532.16,1.22208L414.84419,49.81961a15.9993,15.9993,0,0,0-8.65758,20.90424l3.22047,7.77537L74.29836,241.74292c-8.31776,4.06444-12.27646,13.25582-9.056,21.02924l8.74351,21.10932L9.88112,310.43609a16.00022,16.00022,0,0,0-8.65954,20.90424l20.0552,48.42175a16.00118,16.00118,0,0,0,20.90475,8.66013l64.10476-26.55462,8.74352,21.10737c3.18531,7.69138,12.42684,11.50387,21.2719,8.46677l126.87565-43.77918c.2285.29492.47848.57031.71088.86133L216.419,490.93951A16.00126,16.00126,0,0,0,231.5976,512h16.86207a15.99882,15.99882,0,0,0,15.17664-10.94138l42.163-126.49575a71.11486,71.11486,0,0,0,28.44718,0l42.163,126.49575A16.00127,16.00127,0,0,0,391.58805,512h16.86011a16.00043,16.00043,0,0,0,15.1786-21.06049L376.15752,348.52388a71.27587,71.27587,0,0,0,15.86018-44.52332c0-.26367-.07616-.50586-.07812-.76757l96.72547-33.37491,3.2361,7.81443a16.00164,16.00164,0,0,0,20.90279,8.66013l117.31578-48.59752A15.99767,15.99767,0,0,0,638.7773,216.83088ZM320.02288,328.0005a23.99994,23.99994,0,1,1,23.99827-23.99994A24.0354,24.0354,0,0,1,320.02288,328.0005Zm55.123-69.74786a71.55078,71.55078,0,0,0-126.92056,43.79285L147.81065,336.69383l-26.6641-64.38068L427.8081,122.92683,470.264,225.43046ZM524.00235,229.739l-61.228-147.81991,58.18918-24.1054,61.22607,147.82186Z"></path>
    </symbol>

    <symbol id="envelope" viewBox="0 0 512 512">
        <path d="M464 64H48C21.49 64 0 85.49 0 112v288c0 26.51 21.49 48 48 48h416c26.51 0 48-21.49 48-48V112c0-26.51-21.49-48-48-48zm0 48v40.805c-22.422 18.259-58.168 46.651-134.587 106.49-16.841 13.247-50.201 45.072-73.413 44.701-23.208.375-56.579-31.459-73.413-44.701C106.18 199.465 70.425 171.067 48 152.805V112h416zM48 400V214.398c22.914 18.251 55.409 43.862 104.938 82.646 21.857 17.205 60.134 55.186 103.062 54.955 42.717.231 80.509-37.199 103.053-54.947 49.528-38.783 82.032-64.401 104.947-82.653V400H48z"></path>
    </symbol>

    <symbol id="exclamation-circle" viewBox="0 0 512 512">
        <path d="M256 8C119.043 8 8 119.083 8 256c0 136.997 111.043 248 248 248s248-111.003 248-248C504 119.083 392.957 8 256 8zm0 448c-110.532 0-200-89.431-200-200 0-110.495 89.472-200 200-200 110.491 0 200 89.471 200 200 0 110.53-89.431 200-200 200zm42-104c0 23.159-18.841 42-42 42s-42-18.841-42-42 18.841-42 42-42 42 18.841 42 42zm-81.37-211.401l6.8 136c.319 6.387 5.591 11.401 11.985 11.401h41.17c6.394 0 11.666-5.014 11.985-11.401l6.8-136c.343-6.854-5.122-12.599-11.985-12.599h-54.77c-6.863 0-12.328 5.745-11.985 12.599z"></path>
    </symbol>
</svg>
