<svg xmlns="http://www.w3.org/2000/svg" viewBox="0 0 1997.9 588.1">
    <defs>
        <style>
            .cls-1{fill:url(#linear-gradient);}.cls-2{mask:url(#mask);}.cls-3{fill:#fff;}.cls-4{fill:none;stroke:#fff;stroke-miterlimit:10;stroke-width:8px;}.cls-5{mask:url(#mask-2);}.cls-6{opacity:0.28;}
        </style>
        <linearGradient id="linear-gradient" x1="353.68" y1="426.1" x2="353.68" y2="588.1"
                        gradientUnits="userSpaceOnUse">
            <stop offset="0" stop-color="#fff"/>
            <stop offset="1"/>
        </linearGradient>
        <mask id="mask" x="0" y="426.1" width="707.36" height="162" maskUnits="userSpaceOnUse">
            <rect class="cls-1" y="426.1" width="707.4" height="162"/>
        </mask>
        <mask id="mask-2" x="0" y="426.93" width="707.05" height="161.16" maskUnits="userSpaceOnUse">
            <g class="cls-2">
                <rect class="cls-3" y="426.9" width="707" height="161.16"/>
            </g>
        </mask>
    </defs>
    <line class="cls-4" x1="772.9" y1="431" x2="1025.5" y2="430.4"/>
    <line class="cls-4" x1="1745.3" y1="428.6" x2="1997.8" y2="427.9"/>
    <path class="cls-3"
          d="M301.2,0,482.7,198.4,518,171.6,707,358l-233.8-.7c2.3-4.8,5.9-14.6,2.5-24.2-2.4-6.4-7.3-9.6-17.5-16.9a340.5,340.5,0,0,0-49-28.9c-8.6-4.1-18.8-10.1-18.5-19.8.2-6,4.5-10.9,8.7-15a229.9,229.9,0,0,1,50.4-37.6,245.7,245.7,0,0,0-77.2,22.5c-7.7,3.7-15.4,7.8-21.3,14.1s-10.2,14.7-9.6,23.5c1.7,22.5,32,33.4,34.6,55.9a17.9,17.9,0,0,1-1.8,9.5c-2.3,4.8-6.3,7.2-12.1,10.6a68.7,68.7,0,0,1-14.3,6.3H257.7c7.1-13,12.9-23.9,16.9-31.5,29.7-56.4,38.6-79.6,40.9-85.9,3-8.3,4.2-13.6,8.7-25.1,3.9-9.9,7.8-19.9,9.3-30.5.8-5.6-.1-13-5.4-14.5-3.4-1-7.2.9-9,2.1-35.6,22.3-52.7,33.5-57.3,30.3s.7-15,1.6-17.6c5.9-16.7,18.6-24.1,22.8-37.6.8-2.7,3-9.8-.3-13.1l-.2-.2c-3.4-2.9-9.1,3.9-16.8,2.9-1-.1-5.5-.8-7.1-4s.2-6.8,1.6-9.6c6-12.3,10.8-20.9,13.3-25.9a75.1,75.1,0,0,0,6.8-19.7c2.4-14.8,2.1-22.8-.7-23.9s-5.7,2.1-10.9,9.1L24.5,357.3H0Z"/>
    <path class="cls-3"
          d="M894.4,232.7V358H879.2V253.7L840.3,358h-4.8L796.8,254V358h-8V232.7h16.5L841.9,331l36.6-98.3Z"/>
    <path class="cls-3"
          d="M999.4,329.7H949.3L939.8,358h-8.5l42.6-125.3h8.3l43,125.3h-16.1Zm-2.7-7.7-22.4-65.7L952,322Z"/>
    <path class="cls-3"
          d="M1130.7,358l-27.8-55.8h-25.4V358h-15.4V232.7h41.7c20,0,37,8.1,37,34.4,0,20.2-9.9,30.1-23.5,33.5l29.3,57.4Zm-53.2-63.5h26.3c11.9,0,19.5-5.9,19.5-24.7v-5.2c0-19-7.6-24.2-19.5-24.2h-26.3Z"/>
    <path class="cls-3"
          d="M1219.8,293.2l-16.5,21.9V358H1188V232.7h15.3V302l52.5-69.3h9.9L1230,279.8l42.6,78.2h-18.4Z"/>
    <path class="cls-3" d="M1385.2,288.8h40.5v7.6h-40.5V358h-15.3V232.7h66.2l2.5,7.7h-53.4Z"/>
    <path class="cls-3" d="M1476.1,232.7h15.4V358h-15.4Z"/>
    <path class="cls-3"
          d="M1530.4,343.2l4.2-5.9h1.8a39.5,39.5,0,0,0,31.4,15.2c17.2,0,27.2-9.1,27.2-23.5,0-34.3-59.2-25.9-59.2-66,0-20.1,15.9-32.4,37.9-32.4,11.4,0,21.7,2.8,30.4,12.3L1600,249h-1.8c-6.3-7.5-15-10.7-24.5-10.7-14.9,0-23,7.1-23,19.3,0,30.3,58.5,23.8,58.5,67.1,0,20.8-15.7,35.5-41.4,35.5C1552.1,360.2,1539.7,353.7,1530.4,343.2Z"/>
    <path class="cls-3" d="M1726.7,232.7V358h-15.3V296.4h-45.3V358h-15.4V232.7h15.4v56.1h45.3V232.7Z"/>
    <path class="cls-3" d="M1776.2,232.7h66.3l2.5,7.7h-53.4v48.2h40.5v7.7h-40.5v54h56.9L1846,358h-69.8Z"/>
    <path class="cls-3"
          d="M1958.6,358l-27.7-55.8h-25.5V358h-15.3V232.7h41.7c19.9,0,36.9,8.1,36.9,34.4,0,20.2-9.9,30.1-23.5,33.5l29.3,57.4Zm-53.2-63.5h26.4c11.8,0,19.4-5.9,19.4-24.7v-5.2c0-19-7.6-24.2-19.4-24.2h-26.4Z"/>
    <path class="cls-3"
          d="M1119.8,416.7c0,12.8-8.1,16.9-17.7,16.9h-12.7v26.8h-7.3V400.2h20C1111.7,400.2,1119.8,404.1,1119.8,416.7Zm-8.4-1.2c0-9.1-3.6-11.6-9.3-11.6h-12.7v26h12.7c5.7,0,9.3-2.9,9.3-11.9Z"/>
    <path class="cls-3" d="M1176.2,400.2v60.2h-7.3V430.8h-21.8v29.6h-7.3V400.2h7.3v26.9h21.8V400.2Z"/>
    <path class="cls-3"
          d="M1196.2,430.3c0-20,9.7-31.1,22-31.1s22.1,11.1,22.1,31.1-9.7,31.1-22.1,31.1S1196.2,450.2,1196.2,430.3Zm35.3,7.4V422.9c0-15.3-5.1-20-13.3-20s-13.2,4.7-13.2,20v14.8c0,15.3,5.1,20,13.2,20S1231.5,453,1231.5,437.7Z"/>
    <path class="cls-3" d="M1274.4,403.9v56.5h-7.3V403.9H1250l1.2-3.7h39.2l1.1,3.7Z"/>
    <path class="cls-3"
          d="M1301.2,430.3c0-20,9.7-31.1,22.1-31.1s22,11.1,22,31.1-9.6,31.1-22,31.1S1301.2,450.2,1301.2,430.3Zm35.3,7.4V422.9c0-15.3-5.1-20-13.2-20s-13.3,4.7-13.3,20v14.8c0,15.3,5.1,20,13.3,20S1336.5,453,1336.5,437.7Z"/>
    <path class="cls-3"
          d="M1402.1,429.9v31h-1.8l-4.3-3.8a18.5,18.5,0,0,1-11.7,4.3c-14.4,0-22.8-11.2-22.8-31.1s8.4-31.1,22.8-31.1a17.8,17.8,0,0,1,15.5,8.9l-1.8,3h-.8c-3.2-5.5-6.7-8.2-12.9-8.2-9.9,0-14,5.9-14,20.3V438c0,12.8,2.8,19.7,14,19.7,5,0,7.9-1.6,10.4-4.1v-20h-10.4l1.2-3.7Z"/>
    <path class="cls-3"
          d="M1458.8,460.4l-13.3-26.8h-12.3v26.8h-7.3V400.2h20c9.6,0,17.7,3.9,17.7,16.5,0,9.7-4.7,14.5-11.3,16.1l14.1,27.6Zm-25.6-30.5h12.7c5.7,0,9.3-2.9,9.3-11.9v-2.5c0-9.1-3.6-11.6-9.3-11.6h-12.7Z"/>
    <path class="cls-3"
          d="M1512.9,446.8h-24l-4.6,13.6h-4.1l20.5-60.2h4l20.6,60.2h-7.7Zm-1.3-3.7-10.7-31.5-10.7,31.5Z"/>
    <path class="cls-3"
          d="M1580.8,416.7c0,12.8-8.2,16.9-17.8,16.9h-12.6v26.8H1543V400.2h20C1572.6,400.2,1580.8,404.1,1580.8,416.7Zm-8.4-1.2c0-9.1-3.7-11.6-9.4-11.6h-12.6v26H1563c5.7,0,9.4-2.9,9.4-11.9Z"/>
    <path class="cls-3" d="M1637.2,400.2v60.2h-7.4V430.8h-21.7v29.6h-7.4V400.2h7.4v26.9h21.7V400.2Z"/>
    <path class="cls-3" d="M1681.1,432.5v27.9h-7.3V432.3l-18.9-32.1h8.4l16.2,27.6,16.2-27.6h4.3Z"/>
    <g class="cls-5">
        <g class="cls-6">
            <path class="cls-3"
                  d="M315.5,545c3,8.4,4.2,13.6,8.7,25.1,2.4,5.9,4.7,11.9,6.5,18H481.3l1.4-1.5,2,1.5h58.9Q625.4,507.6,707,426.9l-233.8.7c2.3,4.9,5.9,14.6,2.5,24.2-2.4,6.5-7.3,9.7-17.5,17a340.5,340.5,0,0,1-49,28.9c-8.6,4.1-18.8,10-18.5,19.8.2,6,4.5,10.9,8.7,15a233.1,233.1,0,0,0,50.4,37.6,245.7,245.7,0,0,1-77.2-22.5c-7.7-3.7-15.4-7.9-21.3-14.1s-10.2-14.8-9.6-23.5c1.7-22.6,32-33.5,34.6-55.9a17.7,17.7,0,0,0-1.8-9.5c-2.3-4.8-6.3-7.2-12.1-10.6a68.2,68.2,0,0,0-14.3-6.4H257.7c7.1,13.1,12.9,23.9,16.9,31.6C304.3,515.5,313.2,538.7,315.5,545Z"/>
            <path class="cls-3" d="M159.2,588.1,24.5,427.6H0L135.2,588.1Z"/>
        </g>
    </g>
</svg>