<?xml version="1.0" encoding="utf-8"?>
<!-- Generator: Adobe Illustrator 24.0.1, SVG Export Plug-In . SVG Version: 6.00 Build 0)  -->
<svg version="1.1" id="Layer_1" xmlns="http://www.w3.org/2000/svg" xmlns:xlink="http://www.w3.org/1999/xlink" x="0px" y="0px"
	 viewBox="0 0 100 68" style="enable-background:new 0 0 100 68;" xml:space="preserve">
<g>
	<g>
		<path d="M19,57.59c0.21,0.87,0.78,1.74-0.5,2.14c-1.14,0.36-1.96-0.15-2.34-1.13c-0.91-2.29-2.12-4.51-2.08-7.09
			c0.01-0.84-0.52-0.39-0.88-0.31c-2.9,0.65-4.98,0.45-6.73-3.18c-0.14-0.28-0.22-0.46-0.54-0.42c-0.47,0.06-0.34,0.43-0.39,0.73
			c-0.51,3.3-1.04,6.6-1.57,9.91c-0.08,0.47-0.13,0.92-0.69,1.15c-0.45,0.19-0.89,0.13-1.2-0.05c-0.24-0.14,0.1-0.54,0.17-0.82
			c1.11-4.36,2.04-8.76,2.61-13.21c0.27-2.08-0.53-4.11-0.73-6.18c-0.38-3.99-0.83-7.96-0.27-11.99c0.27-1.96,0.14-3.95,0.32-5.94
			c0.15-1.71,0.76-3.43,0.21-5.25c-0.17-0.55,0.62-1.66,1.26-2.11c0.48-0.33,1.21,0.11,1.47,0.99c0.8,2.78,0.64,5.62,0.7,8.44
			c0.1,4.62-0.49,9.21-0.75,13.81C7,38.53,6.62,39.94,6.52,41.37c-0.2,2.8-0.12,5.56,1.98,7.79c1.34,1.42,2.67,1.68,4.5,0.89
			c0.44-0.19,0.86-0.43,1.3-0.63c0.88-0.41,1.33-0.19,1.25,0.84c-0.19,2.57,0.32,4.95,1.53,7.27C17.81,58.91,18.27,58.97,19,57.59z
			 M5.29,38.53c0.53-0.68,0.44-1.24,0.51-1.75c0.62-4.81,0.78-9.64,0.92-14.48c0.05-1.76-0.05-3.53-0.15-5.3
			c-0.02-0.38,0.17-1.18-0.62-1.03c-0.69,0.13-0.21,0.69-0.16,1.05c0.19,1.35,0.14,2.71-0.09,4.02C4.69,26.79,4.56,32.55,5.29,38.53
			z"/>
		<path d="M79.4,3.59c-5.17,3.72-9.99,7.81-13.67,13.07c-3.45,4.93-6.15,10.27-7.97,16.03c-1.16,3.66-2.05,7.33-2.02,11.24
			c0.03,3.53-0.2,3.54,3.13,1.95c1.3-0.63,2.53-1.38,3.91-1.88c0.53-0.19,1.01-0.41,1.5-0.03c0.63,0.49,0.15,1.08-0.09,1.43
			c-0.87,1.24-1.14,2.78-2.12,3.96c-0.54,0.64-0.3,1.26,0.42,1.94c-0.76,0.13-1.29,0.4-1.76-0.16c-0.39-0.47-0.22-0.94-0.04-1.49
			c0.43-1.28,0.72-2.61,1.54-4.14c-2.27,0.95-4.08,1.88-5.75,3.14c-0.79,0.6-1.18,1.27-0.98,2.18c0.25,1.16-0.7,2.58,0.86,3.49
			c0.34,0.2-0.04,0.79-0.47,1.01c-0.54,0.29-1.08,0.58-1.55-0.11c-0.52-0.77-0.56-1.67-0.34-2.48c0.37-1.39,0.51-2.76-0.15-4.05
			c-0.44-0.86,0.51-1.17,0.5-1.88c-0.05-3.36,0.18-6.71,0.92-9.99c0.62-2.74,1.45-5.43,2.57-8.02c1.55-3.61,3.19-7.2,5.31-10.5
			c3.81-5.93,8.71-10.81,14.92-14.27C78.46,3.81,78.95,3.73,79.4,3.59z"/>
		<path d="M41.16,50.58c1.13-1.04,1.89-2.32,3.32-3.02c0.12,0.75-0.32,1.1-0.69,1.48c-0.64,0.66-1.31,1.29-1.92,1.97
			c-0.68,0.75-1.24,1.59-0.16,2.42c1.05,0.79,1.89,0.41,2.51-0.66c0.05-0.08,0.15-0.13,0.25-0.22c0.11,1.46-0.68,2.19-1.98,2.42
			c-1.27,0.23-2.36-0.89-3.21-3.36c-0.49,0.89-0.9,1.66-1.33,2.41c-0.44,0.78-0.98,1.36-2.01,1.36c-1.04-0.01-1.55-0.62-1.92-1.44
			c-0.57-1.25-1.34-2.48-0.57-3.95c0.1-0.19,0.05-0.61-0.1-0.72c-0.32-0.25-0.56,0.09-0.82,0.29c-1.57,1.23-0.89,2.77-0.56,4.24
			c0.19,0.82,1.08,1.98,0.05,2.37c-1.2,0.45-1.05-1.04-1.39-1.78c-0.24-0.52-0.59-1-0.88-1.5c-0.45-0.79-1.06-1.15-1.98-0.8
			c-0.43,0.16-0.95,0.39-0.75,0.86c0.33,0.77,0.37,2.05,1.42,2.01c0.92-0.03,0.67,0.64,0.98,0.94c0.15,0.14,0.17,0.54-0.16,0.67
			c-0.47,0.18-0.97,0.21-1.37-0.16c-0.51-0.48-1.06-0.94-1.44-1.52c-0.35-0.54-0.22-1.7-0.9-1.64c-1,0.09-2.05,0.6-2.89,1.19
			c-0.66,0.46,0.11,1.09,0.31,1.62c0.16,0.43,1.21,0.66,0.21,1.3c-0.89,0.57-1.11-0.11-1.39-0.69c-1.12-2.36-1.5-4.87-1.24-7.43
			c0.15-1.5,1.77-2.12,3.11-1.31c0.5,0.3,1.06,0.7,1.28,1.19c0.8,1.79,1.85,2.61,3.93,1.82c0.69-0.26,1.24-0.38,1.55-1.1
			c0.32-0.76,0.84-1.31,1.67-1.61c1.81-0.66,2.5-0.21,2.61,1.69c0.06,1.01,0.21,2.02,0.35,3.02c0.07,0.5,0.38,0.98,0.85,1.1
			c0.62,0.16,0.74-0.48,0.96-0.89c0.82-1.5,1.63-3,2.44-4.51c0.29-0.54,0.64-1.2,1.3-0.92c0.63,0.28,0.75,0.96,0.36,1.65
			C40.79,49.7,40.8,50.1,41.16,50.58z M21.75,50.66c0.05,0.88-0.2,2.03,1.29,1.78c0.67-0.11,1.78,0.4,1.91-0.76
			c0.1-0.88-1.7-2.91-2.31-2.77C21.74,49.12,21.69,49.89,21.75,50.66z"/>
		<path d="M97.42,61.8c-1.97,0-3.93-0.04-5.9,0.01c-3,0.08-5.99,0.19-8.98,0.33c-5.96,0.28-11.92,0.59-17.86,1.2
			c-3.68,0.38-7.39,0.58-11.05,1.09c-5.39,0.75-10.75,1.69-16.13,2.55c-0.26,0.04-0.52,0.11-0.79,0.13
			c-0.6,0.05-1.17-0.19-1.16-0.79c0-0.55,0.49-0.94,1.13-0.87c4.39,0.47,8.53-1.06,12.79-1.55c2.93-0.34,5.87-0.6,8.78-1.05
			c4.89-0.75,9.85-1.1,14.76-1.45c7.01-0.49,14.08-0.77,21.13-0.48c1.09,0.04,2.18,0.31,3.26,0.48
			C97.42,61.54,97.42,61.67,97.42,61.8z"/>
		<path d="M99.23,47.83c-0.88,1.86-2.24,2.21-3.69,1.95c-1.85-0.33-3.27-1.45-4.22-3.07c-0.35-0.6-0.54-1.26-0.23-2
			c0.27-0.65,0.47-1.51-0.09-1.94c-0.65-0.5-1.4,0.09-2.04,0.45c-0.59,0.34-1.21,0.67-1.73,1.1c-0.47,0.39-1.28,0.68-0.56,1.64
			c0.39,0.52-0.28,0.53-0.67,0.65c-0.6,0.17-1.45-0.02-1.61,0.93c-0.11,0.63,0.07,1.21,0.52,1.62c0.65,0.61,1.38,0.37,2.07,0
			c0.42-0.23,0.86-0.44,1.26-0.71c0.85-0.56,1.41-1.15-0.19-1.62c0.63-0.3,1.11-0.09,1.6,0.02c0.46,0.11,0.63,0.38,0.51,0.82
			c-0.43,1.59-4.08,3.39-5.58,2.74c-0.4-0.17-0.72-0.4-0.93-0.83c-1.2-2.4,0.06-5.4,2.54-6.26c1.15-0.4,2.22-1.04,3.32-1.59
			c0.72-0.36,1.43-0.43,2.11,0.03c0.7,0.46,1.1,1.18,0.81,1.95c-0.84,2.23,0.72,3.37,2.09,4.39C95.89,49.11,97.51,49.09,99.23,47.83
			z"/>
		<path d="M72.46,42.92c1.17-0.14,1.96-0.4,2.19,0.79c0.14,0.71-0.3,1.51,0.38,2.22c0.91-1.02,1.78-2.03,2.95-2.68
			c1.51-0.84,2.44-0.28,2.49,1.46c0.03,0.92-0.01,1.84,0.01,2.75c0.02,0.54-0.19,1.35,0.89,0.96c0.29-0.1,0.41,0.1,0.31,0.34
			c-0.19,0.44-0.49,0.73-1.02,0.88c-0.53,0.15-0.82,0.05-1.04-0.39c-0.42-0.85-0.31-1.77-0.38-2.68c-0.06-0.74,0.48-1.84-0.4-2.15
			c-0.86-0.31-1.41,0.67-1.97,1.32c-1.05,1.23-2.07,2.45-2.26,4.14c-0.05,0.42-0.4,0.75-0.73,0.72c-0.42-0.04-0.75-0.37-0.71-0.91
			c0.11-1.43,0.03-2.91,0.37-4.29C73.8,44.33,73.79,43.59,72.46,42.92z"/>
		<path d="M67.31,48.47c0.5,0.37-0.26,1.28,0.66,1.42c0.37,0.06,0.61-0.17,0.81-0.43c0.43-0.59,0.4-1.16-0.06-1.73
			c-1.13-1.42-1.15-2.88-0.26-4.47c0.28-0.49,0.67-0.47,1.02-0.63c0.33-0.15,0.66,0.09,0.82,0.32c0.24,0.35-0.05,0.56-0.37,0.72
			c-1.34,0.66-1.33,1.62-0.59,2.74c0.17,0.26,0.27,0.59,0.46,0.84c0.73,0.95,0.92,1.91,0.08,2.9c-0.97,1.14-2.15,1.19-3.48,0.73
			c-0.43-0.15-0.74-0.49-0.67-0.79C65.92,49.27,66.43,48.65,67.31,48.47z"/>
	</g>
</g>
</svg>
