<svg xmlns="http://www.w3.org/2000/svg" viewBox="0 0 1000 1000"><path d="M0 0h1000v1000H0z" fill="#090909"/><path fill="#fff" d="m429.3 246.6 247.2 270.2 48.1-36.5L982 734.2l-318.5-1c3.1-6.5 8-19.9 3.4-33-3.3-8.7-9.9-13.1-23.8-23-21.1-15-43.4-28.1-66.7-39.4-11.7-5.6-25.6-13.8-25.2-27 .3-8.2 6.1-14.8 11.9-20.4 20.4-20.1 43.5-37.4 68.6-51.2-36.5 4.4-72 14.7-105.2 30.6-10.5 5-21 10.6-29 19.2s-13.9 20-13.1 32c2.3 30.6 43.6 45.5 47.1 76.1.4 4.5-.5 8.9-2.5 12.9-3.1 6.5-8.6 9.8-16.5 14.4-6.1 3.6-12.7 6.5-19.5 8.6H370c9.7-17.7 17.6-32.6 23-42.9 40.5-76.8 52.6-108.4 55.7-117 4.1-11.3 5.7-18.5 11.9-34.2 5.3-13.5 10.6-27.1 12.7-41.5 1.1-7.6-.1-17.7-7.4-19.8-4.6-1.4-9.8 1.2-12.3 2.9-48.5 30.4-71.8 45.6-78 41.3s1-20.4 2.2-24c8-22.7 25.3-32.8 31.1-51.2 1.1-3.7 4.1-13.3-.4-17.8l-.3-.3c-4.6-4-12.4 5.3-22.9 4-1.4-.1-7.5-1.1-9.7-5.4s.3-9.3 2.2-13.1c8.2-16.8 14.7-28.5 18.1-35.3 4.3-8.5 7.4-17.5 9.3-26.8 3.3-20.2 2.9-31.1-1-32.6s-7.8 2.9-14.8 12.4l-337 401.4H19l410.3-486.5z"/></svg>